<svg xmlns="http://www.w3.org/2000/svg" fill="none" viewBox="0 0 24 24" id="Notion-Icon--Streamline-Svg-Logos" height="24" width="24">
  <desc>
    Notion Icon Streamline Icon: https://streamlinehq.com
  </desc>
  <path fill="#ffffff" d="M2.167685 1.26378 15.170875 0.3034225c1.5972 -0.1370805 2.00765 -0.0446475 3.011875 0.68541L22.333575 3.912975c0.684625 0.5029 0.912575 0.639975 0.912575 1.187525V21.1375c0 1.005 -0.365025 1.59955 -1.642625 1.6904l-15.10015 0.91415c-0.958775 0.045425 -1.41545 -0.09165 -1.917575 -0.731625L1.529275 19.03585c-0.5483275 -0.731625 -0.77549 -1.279175 -0.77549 -1.91915V2.86175c0 -0.8216975 0.3650275 -1.507105 1.4139 -1.59797Z" stroke-width="0.25"></path>
  <path fill="#000000" d="M15.170875 0.3034225 2.167685 1.26378c-1.0488725 0.090865 -1.4139 0.7762725 -1.4139 1.59797v14.25495c0 0.639975 0.2271625 1.187525 0.77549 1.91915l3.056525 3.974575c0.502125 0.639975 0.9588 0.77705 1.917575 0.731625l15.10015 -0.91415c1.276825 -0.09085 1.642625 -0.6854 1.642625 -1.6904V5.1005c0 -0.51935 -0.205225 -0.66895 -0.809175 -1.112325 -0.03475 -0.025025 -0.069475 -0.0501 -0.104175 -0.0752L18.18275 0.9888325C17.178525 0.258775 16.768075 0.166342 15.170875 0.3034225ZM6.844925 4.8381c-1.232975 0.083025 -1.5126 0.101825 -2.2129 -0.46765l-1.7805 -1.41625c-0.18095 -0.1833 -0.090075 -0.412025 0.365825 -0.4574675L15.717625 1.583375c1.04965 -0.0916475 1.596425 0.274165 2.006875 0.59376l2.143975 1.55334c0.091625 0.0462 0.319575 0.3196 0.045425 0.3196l-12.9092 0.77705 -0.159775 0.010975Zm-1.4374 16.162325V7.38625c0 -0.59455 0.1825 -0.868725 0.729275 -0.914925l14.82675 -0.867925c0.5029 -0.045425 0.73005 0.27415 0.73005 0.867925v13.5233c0 0.59455 -0.09165 1.09745 -0.912575 1.142875l-14.18835 0.8225c-0.820925 0.045425 -1.18515 -0.22795 -1.18515 -0.959575Zm14.005825 -12.884125c0.090875 0.41125 0 0.8225 -0.41125 0.8695l-0.683825 0.1355v10.051625c-0.593775 0.3196 -1.140525 0.5021 -1.5972 0.5021 -0.730075 0 -0.912575 -0.228725 -1.45935 -0.91335l-4.472 -7.035825v6.8071l1.4147 0.320375s0 0.8225 -1.1413 0.8225l-3.146625 0.1825c-0.09165 -0.1833 0 -0.639975 0.318825 -0.730825l0.8217 -0.22795V9.89915l-1.140525 -0.092425c-0.09165 -0.41125 0.1363 -1.005025 0.7755 -1.051225l3.376125 -0.227175L16.721075 15.655V9.350025l-1.18595 -0.1363c-0.09165 -0.503675 0.273375 -0.869475 0.72925 -0.914125l3.148975 -0.1833Z" stroke-width="0.25"></path>
</svg>