<svg xmlns="http://www.w3.org/2000/svg" fill="none" viewBox="0 0 24 24" id="Streamlit--Streamline-Svg-Logos" height="24" width="24">
  <desc>
    Streamlit Streamline Icon: https://streamlinehq.com
  </desc>
  <path fill="#ff4b4b" d="M11.622575 5.810275c0.17625 -0.26705 0.574425 -0.26705 0.75725 0l3.741025 5.5767 3.97675 5.922625c-0.04695 0.08355 -0.101125 0.162825 -0.1619 0.23695 -0.041525 0.049425 -0.08085 0.0962 -0.129875 0.1442 -0.01075 0.0103 -0.02115 0.018325 -0.034 0.0281l-0.0138 0.010525c-0.045 0.033625 -0.091375 0.0654 -0.13895 0.09525 -0.03855 0.024125 -0.070425 0.04545 -0.116475 0.0676 -0.046 0.022175 -0.11955 0.0488 -0.1638 0.064 -0.04435 0.015275 -0.05915 0.02045 -0.091825 0.02765 -0.016275 0.0033 -0.03265 0.0065 -0.04895 0.008475 -0.011125 0.00195 -0.022175 0.0039 -0.0333 0.00525 -0.00195 0.000625 -0.004525 0.000625 -0.0065 0.001325l-0.04965 0.005875c-0.052175 0.005175 -0.106375 0.007825 -0.16185 0.007825 -4.61475 0.50315 -9.270525 0.50315 -13.885275 0 -0.00525 0 -0.010425 0 -0.01565 -0.0007l-0.015675 -0.000075 -0.0072 -0.00055h-0.00715c-0.005225 -0.000625 -0.010475 -0.000625 -0.01565 -0.001325h-0.00525c-0.0072 -0.000625 -0.0138 -0.000625 -0.02085 -0.00125 -0.043075 -0.0033 -0.093275 -0.0142 -0.12925 -0.022175 -0.036025 -0.0072 -0.057475 -0.013075 -0.0875 -0.019675 -0.35515 -0.0842 -0.6815 -0.298275 -0.831025 -0.6449 -0.003925 -0.009175 -0.0072 -0.01825 -0.011125 -0.027425l-0.000625 -0.00195L0.27067 7.998975c-0.09791725 -0.261075 0.1697475 -0.52225 0.4308325 -0.398175 0.00658 0 0.0195825 0 0.0261625 0.0065L7.878875 11.3869l3.7437 -5.576625Zm11.658725 1.7971c0.2618 -0.143575 0.542475 0.104425 0.45105 0.3786v0.013075L20.097675 17.309675 16.12085 11.386975l7.15395 -3.7796h0.0065Z" stroke-width="0.25"></path>
  <path fill="#7d353b" d="M23.28135 7.607525h-0.006525L16.120975 11.3871l3.97675 5.9227 3.63465 -9.310625v-0.013075c0.091425 -0.274175 -0.18925 -0.522175 -0.451025 -0.378575Z" stroke-width="0.25"></path>
  <path fill="#bd4043" d="M12.37985 5.810275c-0.182825 -0.26705 -0.581 -0.26705 -0.75725 0L7.8789 11.386975l4.1197 2.17765 7.80725 4.126125c0.04905 -0.048 0.088375 -0.094775 0.129875 -0.1442 0.060775 -0.074125 0.11495 -0.1534 0.161925 -0.23695l-3.97675 -5.922625 -3.74105 -5.5767Z" stroke-width="0.25"></path>
</svg>